<!DOCTYPE svg PUBLIC "-//W3C//DTD SVG 20010904//EN" "http://www.w3.org/TR/2001/REC-SVG-20010904/DTD/svg10.dtd">
<svg version="1.0" xmlns="http://www.w3.org/2000/svg" width="300px" height="287px" viewBox="0 0 3000 2870" preserveAspectRatio="xMidYMid meet">
<!-- generated by www.vectorizer.io -->
<g id="layer1" fill="#ffffff" stroke="none">
 <path d="M31 2820 c-17 -28 -31 -61 -31 -74 l0 -25 693 -1 c785 -1 707 -9 746 85 l21 50 -6 -202 c-7 -233 -11 -224 85 -206 92 18 180 61 225 112 l20 21 -145 145 -144 145 -716 0 -717 0 -31 -50z"/>
 <path d="M1769 2504 c-36 -37 -110 -83 -144 -90 -94 -18 -118 -21 -140 -17 -15 4 -26 0 -29 -8 -2 -8 -7 -393 -10 -857 -6 -737 -5 -843 8 -848 10 -4 85 65 225 207 126 127 211 205 211 195 0 -10 7 -30 15 -44 8 -15 37 -83 65 -152 28 -69 59 -143 69 -165 11 -22 22 -51 26 -65 4 -14 14 -34 21 -45 8 -11 14 -26 14 -35 0 -8 7 -28 15 -44 9 -16 34 -75 56 -130 22 -56 45 -105 50 -110 5 -6 9 -17 9 -25 0 -8 8 -33 18 -55 32 -70 60 -139 73 -178 8 -22 19 -38 29 -38 25 0 220 75 363 139 23 10 53 22 66 26 25 8 91 44 91 51 0 6 -31 87 -51 131 -10 24 -19 49 -19 56 0 7 -4 17 -9 23 -5 5 -27 54 -49 109 -22 55 -47 114 -56 130 -9 17 -16 36 -16 43 0 8 -7 26 -15 40 -8 15 -30 65 -49 112 -19 47 -53 130 -76 185 -23 55 -51 125 -62 155 -12 30 -27 64 -34 75 -31 45 -31 45 277 45 283 0 290 0 287 20 -3 18 -1171 1200 -1187 1200 -4 0 -23 -16 -42 -36z m556 -594 l490 -490 -191 0 -192 0 -212 318 c-117 174 -234 349 -260 387 -150 223 -168 253 -157 264 6 6 16 11 22 11 5 0 231 -220 500 -490z m-439 248 c71 -105 134 -199 139 -209 6 -9 51 -76 100 -149 50 -72 95 -140 101 -151 6 -10 18 -27 27 -37 10 -10 17 -23 17 -29 0 -5 9 -18 20 -28 11 -10 20 -23 20 -29 0 -6 14 -29 30 -50 37 -49 37 -54 3 -58 -39 -4 -41 -43 -9 -109 14 -28 26 -55 26 -61 0 -6 9 -29 19 -52 42 -91 61 -136 61 -149 0 -7 4 -17 8 -22 5 -6 15 -26 22 -45 7 -19 23 -57 35 -85 21 -49 43 -99 86 -207 12 -29 30 -71 40 -94 11 -23 19 -48 19 -56 0 -8 4 -18 9 -24 5 -5 28 -56 51 -113 22 -57 47 -116 55 -131 14 -27 14 -27 -28 -40 -23 -8 -59 -22 -79 -32 -44 -21 -58 -23 -58 -5 0 6 -12 35 -25 62 -14 28 -25 54 -25 59 0 5 -9 28 -19 50 -11 23 -35 79 -54 126 -33 82 -45 111 -73 175 -7 17 -20 50 -30 75 -10 25 -23 54 -31 65 -7 11 -13 26 -13 34 0 7 -9 32 -19 55 -42 91 -61 136 -61 149 0 7 -4 17 -8 22 -5 6 -15 26 -22 45 -7 19 -23 58 -35 85 -26 56 -81 192 -100 245 -8 19 -20 49 -29 65 -9 17 -16 37 -16 45 0 9 -6 24 -13 35 -8 11 -21 40 -31 65 -25 65 -84 208 -106 255 -10 22 -30 72 -45 110 -15 39 -35 88 -45 110 -10 22 -33 77 -51 123 -28 71 -31 85 -19 92 8 6 18 10 21 10 4 0 64 -86 135 -192z m-206 139 c0 -8 6 -27 14 -43 17 -36 71 -162 99 -229 11 -27 28 -69 38 -92 11 -24 19 -47 19 -53 0 -6 9 -27 20 -47 11 -21 20 -45 20 -53 0 -9 4 -20 9 -26 5 -5 27 -54 49 -109 22 -55 47 -113 56 -130 9 -16 16 -37 16 -45 0 -9 6 -24 14 -35 7 -11 19 -38 26 -60 7 -22 16 -45 21 -50 4 -6 14 -28 22 -50 26 -71 88 -219 108 -258 10 -21 19 -43 19 -49 0 -6 9 -29 19 -52 35 -75 61 -136 61 -142 0 -4 11 -32 24 -63 25 -57 91 -215 128 -306 11 -27 31 -73 44 -102 13 -28 24 -56 24 -61 0 -5 7 -23 16 -41 9 -18 12 -36 8 -41 -5 -4 -40 -21 -79 -38 -70 -31 -95 -30 -95 4 0 7 -11 37 -24 66 -13 29 -34 78 -46 108 -13 30 -31 74 -41 97 -11 24 -19 49 -19 56 0 7 -4 17 -8 23 -5 5 -17 29 -26 54 -10 25 -24 59 -31 75 -7 17 -25 59 -40 95 -15 36 -36 84 -46 107 -11 24 -19 46 -19 51 0 4 -9 25 -20 47 -11 22 -20 46 -20 55 0 9 -4 20 -9 25 -11 13 -81 177 -81 192 0 5 -10 22 -21 37 l-22 27 -28 -27 c-21 -20 -29 -24 -33 -13 -7 26 -48 233 -61 316 -8 46 -16 87 -19 92 -4 5 -15 58 -26 118 -11 59 -24 126 -29 148 -14 58 -42 202 -51 260 -4 28 -13 74 -20 104 -10 44 -10 55 1 62 21 13 39 11 39 -4z m-87 -63 c5 -27 16 -80 24 -119 9 -38 19 -92 23 -120 4 -27 14 -84 23 -125 9 -41 25 -124 37 -185 11 -60 26 -130 32 -155 14 -61 28 -128 34 -170 5 -38 15 -87 35 -164 l12 -48 -136 -136 -137 -135 0 701 c0 714 0 716 35 708 6 -1 14 -25 18 -52z"/>
 </g>

</svg>